<?xml version="1.0" standalone="no"?>
<!DOCTYPE svg PUBLIC "-//W3C//DTD SVG 20010904//EN"
 "http://www.w3.org/TR/2001/REC-SVG-20010904/DTD/svg10.dtd">
<svg version="1.0" xmlns="http://www.w3.org/2000/svg"
 width="687.000000pt" height="363.000000pt" viewBox="0 0 687.000000 363.000000"
 preserveAspectRatio="xMidYMid meet">

<g transform="translate(0.000000,363.000000) scale(0.100000,-0.100000)"
fill="#000000" stroke="none">
<path d="M3163 1653 c-10 -4 -13 -105 -13 -459 l0 -454 40 0 40 0 2 267 3 268
55 13 c66 15 146 10 190 -13 21 -11 39 -32 53 -63 18 -41 21 -72 25 -260 l5
-212 34 0 35 0 -4 228 c-3 219 -4 229 -28 276 -14 28 -41 63 -61 79 -57 45
-174 54 -286 21 l-23 -6 0 161 0 161 -27 -1 c-16 0 -34 -3 -40 -6z"/>
<path d="M2186 1587 c-21 -16 -24 -60 -6 -82 7 -8 25 -15 40 -15 33 0 53 21
53 55 0 49 -47 71 -87 42z"/>
<path d="M1191 1548 c-11 -29 -61 -687 -61 -798 0 -5 17 -10 38 -10 l39 0 7
163 c10 261 28 501 37 511 8 9 101 -177 221 -441 l52 -113 36 0 c34 0 36 2 65
68 16 37 76 164 133 282 l105 215 7 -40 c8 -39 22 -255 36 -517 l6 -128 40 0
40 0 -6 77 c-3 43 -8 128 -11 188 -8 139 -33 466 -41 523 -6 38 -9 42 -35 42
-22 0 -34 -8 -53 -38 -35 -55 -118 -222 -202 -407 -41 -88 -77 -161 -81 -162
-5 -2 -43 75 -86 170 -43 94 -110 232 -149 305 -66 123 -73 132 -100 132 -20
0 -31 -6 -37 -22z"/>
<path d="M3720 1155 l0 -415 70 0 70 0 2 183 3 182 180 0 180 0 3 -182 2 -183
75 0 75 0 -2 413 -3 412 -70 0 -70 0 -5 -165 -5 -165 -180 0 -180 0 -3 168 -2
167 -70 0 -70 0 0 -415z"/>
<path d="M2594 1359 c-39 -4 -82 -13 -97 -18 l-27 -11 0 -295 0 -295 35 0 35
0 0 269 c0 224 2 270 14 274 31 12 137 19 181 13 62 -10 109 -52 124 -110 6
-26 11 -131 11 -245 l0 -201 41 0 41 0 -4 223 c-5 234 -10 264 -56 326 -46 63
-154 88 -298 70z"/>
<path d="M4567 1354 c-11 -11 -8 -329 3 -408 20 -132 80 -197 204 -216 69 -11
97 -9 234 12 l72 11 0 303 0 304 -70 0 -70 0 0 -255 0 -255 -78 0 c-82 0 -110
11 -134 53 -9 15 -15 91 -18 237 l-5 215 -65 3 c-36 2 -69 0 -73 -4z"/>
<path d="M5207 1308 c30 -104 104 -300 159 -420 31 -68 58 -130 60 -138 6 -20
-29 -75 -61 -96 -24 -16 -108 -23 -144 -13 -11 3 -19 -12 -29 -49 -8 -29 -13
-55 -10 -58 3 -2 33 -9 66 -14 107 -18 195 14 246 89 59 85 170 369 251 639
l33 112 -72 0 -72 0 -38 -142 c-42 -157 -84 -289 -96 -301 -10 -12 -82 176
-135 356 l-26 87 -74 0 -74 0 16 -52z"/>
<path d="M2180 1045 l0 -305 40 0 40 0 0 305 0 305 -40 0 -40 0 0 -305z"/>
<path d="M3004 331 c-88 -54 -54 -201 46 -201 44 0 60 18 60 65 0 43 -1 45
-30 45 -16 0 -30 -4 -30 -10 0 -5 9 -10 20 -10 16 0 20 -7 20 -30 0 -23 -5
-31 -24 -36 -24 -6 -65 10 -78 30 -11 16 -9 85 3 107 14 27 53 41 84 29 30
-11 34 4 6 20 -28 14 -42 13 -77 -9z"/>
<path d="M3745 336 c-36 -16 -55 -52 -55 -107 0 -72 72 -120 131 -89 14 8 19
21 19 55 0 43 -1 45 -30 45 -16 0 -30 -4 -30 -10 0 -5 9 -10 21 -10 17 0 20
-5 17 -32 -6 -67 -93 -39 -105 34 -10 63 42 117 94 97 29 -11 40 6 14 20 -25
14 -39 13 -76 -3z"/>
<path d="M2602 238 l3 -103 54 1 c32 1 59 8 68 17 21 21 19 65 -3 82 -15 11
-17 16 -6 26 15 16 16 51 0 67 -7 7 -36 12 -65 12 l-54 0 3 -102z m82 82 c50
-19 19 -76 -37 -68 -14 2 -23 11 -25 26 -7 49 11 62 62 42z m28 -96 c5 -3 8
-16 8 -29 0 -29 -30 -48 -68 -43 -21 2 -28 9 -30 31 -6 49 4 60 46 52 20 -4
40 -9 44 -11z"/>
<path d="M2792 238 l3 -103 58 -3 c35 -2 57 1 57 8 0 5 -20 10 -45 10 l-45 0
0 40 c0 39 1 40 34 40 19 0 38 5 41 10 4 6 -10 10 -34 10 -40 0 -41 1 -41 35
0 35 0 35 45 35 25 0 45 5 45 10 0 6 -27 10 -60 10 l-61 0 3 -102z"/>
<path d="M3162 238 c4 -133 22 -132 26 2 2 85 0 100 -13 100 -13 0 -15 -15
-13 -102z"/>
<path d="M3250 235 c0 -128 18 -142 22 -17 l3 87 39 -70 c45 -81 65 -107 77
-99 13 7 11 204 -1 204 -6 0 -10 -33 -10 -80 0 -44 -3 -80 -7 -80 -5 0 -28 36
-52 80 -61 110 -71 106 -71 -25z"/>
<path d="M3565 328 c-10 -27 -65 -192 -65 -195 0 -2 4 -3 9 -3 5 0 15 16 21
35 11 32 15 35 51 35 35 0 40 -3 55 -37 30 -70 26 -14 -6 82 -21 62 -37 95
-46 95 -8 0 -17 -6 -19 -12z m34 -49 c17 -50 14 -59 -20 -59 -24 0 -29 4 -25
18 3 9 8 29 12 45 8 36 20 34 33 -4z"/>
<path d="M3940 336 c0 -3 -16 -48 -34 -100 -19 -53 -31 -98 -26 -101 5 -3 16
10 24 30 13 31 19 35 51 35 32 0 38 -4 51 -35 15 -36 40 -50 29 -16 -43 136
-64 186 -78 189 -10 2 -17 1 -17 -2z m36 -77 l12 -39 -35 0 c-31 0 -34 2 -27
23 25 79 31 81 50 16z"/>
<path d="M4072 238 c4 -133 22 -132 26 2 2 85 0 100 -13 100 -13 0 -15 -15
-13 -102z"/>
<path d="M4160 241 c0 -125 18 -145 22 -25 l3 87 50 -84 c28 -46 55 -84 60
-84 6 0 11 43 13 103 2 65 -1 102 -8 102 -6 0 -10 -32 -10 -80 0 -44 -3 -80
-7 -80 -5 0 -27 36 -51 80 -59 110 -72 107 -72 -19z"/>
<path d="M1270 240 c0 -7 215 -10 625 -10 410 0 625 3 625 10 0 7 -215 10
-625 10 -410 0 -625 -3 -625 -10z"/>
<path d="M4395 240 c-4 -7 205 -10 619 -10 411 0 626 3 626 10 0 7 -213 10
-619 10 -403 0 -622 -4 -626 -10z"/>
</g>
</svg>
